<svg width="32" height="15" viewBox="0 0 32 15" fill="none" xmlns="http://www.w3.org/2000/svg">
<path d="M0.432266 12V0.869999H1.49727V12H0.432266ZM7.67059 12.075C6.91059 12.075 6.22559 11.905 5.61559 11.565C5.01559 11.215 4.54059 10.74 4.19059 10.14C3.84059 9.53 3.66559 8.835 3.66559 8.055C3.66559 7.265 3.84059 6.57 4.19059 5.97C4.54059 5.37 5.01559 4.9 5.61559 4.56C6.21559 4.22 6.90059 4.05 7.67059 4.05C8.45059 4.05 9.14059 4.22 9.74059 4.56C10.3506 4.9 10.8256 5.37 11.1656 5.97C11.5156 6.57 11.6906 7.265 11.6906 8.055C11.6906 8.835 11.5156 9.53 11.1656 10.14C10.8256 10.74 10.3506 11.215 9.74059 11.565C9.13059 11.905 8.44059 12.075 7.67059 12.075ZM7.67059 11.13C8.24059 11.13 8.74559 11.005 9.18559 10.755C9.62559 10.495 9.97059 10.135 10.2206 9.675C10.4806 9.205 10.6106 8.665 10.6106 8.055C10.6106 7.435 10.4806 6.895 10.2206 6.435C9.97059 5.975 9.62559 5.62 9.18559 5.37C8.74559 5.11 8.24559 4.98 7.68559 4.98C7.12559 4.98 6.62559 5.11 6.18559 5.37C5.74559 5.62 5.39559 5.975 5.13559 6.435C4.87559 6.895 4.74559 7.435 4.74559 8.055C4.74559 8.665 4.87559 9.205 5.13559 9.675C5.39559 10.135 5.74559 10.495 6.18559 10.755C6.62559 11.005 7.12059 11.13 7.67059 11.13ZM17.2249 14.985C16.5049 14.985 15.8149 14.88 15.1549 14.67C14.4949 14.46 13.9599 14.16 13.5499 13.77L14.0899 12.96C14.4599 13.29 14.9149 13.55 15.4549 13.74C16.0049 13.94 16.5849 14.04 17.1949 14.04C18.1949 14.04 18.9299 13.805 19.3999 13.335C19.8699 12.875 20.1049 12.155 20.1049 11.175V9.21L20.2549 7.86L20.1499 6.51V4.125H21.1699V11.04C21.1699 12.4 20.8349 13.395 20.1649 14.025C19.5049 14.665 18.5249 14.985 17.2249 14.985ZM17.0299 11.7C16.2799 11.7 15.6049 11.54 15.0049 11.22C14.4049 10.89 13.9299 10.435 13.5799 9.855C13.2399 9.275 13.0699 8.61 13.0699 7.86C13.0699 7.11 13.2399 6.45 13.5799 5.88C13.9299 5.3 14.4049 4.85 15.0049 4.53C15.6049 4.21 16.2799 4.05 17.0299 4.05C17.7299 4.05 18.3599 4.195 18.9199 4.485C19.4799 4.775 19.9249 5.205 20.2549 5.775C20.5849 6.345 20.7499 7.04 20.7499 7.86C20.7499 8.68 20.5849 9.375 20.2549 9.945C19.9249 10.515 19.4799 10.95 18.9199 11.25C18.3599 11.55 17.7299 11.7 17.0299 11.7ZM17.1349 10.755C17.7149 10.755 18.2299 10.635 18.6799 10.395C19.1299 10.145 19.4849 9.805 19.7449 9.375C20.0049 8.935 20.1349 8.43 20.1349 7.86C20.1349 7.29 20.0049 6.79 19.7449 6.36C19.4849 5.93 19.1299 5.595 18.6799 5.355C18.2299 5.105 17.7149 4.98 17.1349 4.98C16.5649 4.98 16.0499 5.105 15.5899 5.355C15.1399 5.595 14.7849 5.93 14.5249 6.36C14.2749 6.79 14.1499 7.29 14.1499 7.86C14.1499 8.43 14.2749 8.935 14.5249 9.375C14.7849 9.805 15.1399 10.145 15.5899 10.395C16.0499 10.635 16.5649 10.755 17.1349 10.755ZM27.3434 12.075C26.5834 12.075 25.8984 11.905 25.2884 11.565C24.6884 11.215 24.2134 10.74 23.8634 10.14C23.5134 9.53 23.3384 8.835 23.3384 8.055C23.3384 7.265 23.5134 6.57 23.8634 5.97C24.2134 5.37 24.6884 4.9 25.2884 4.56C25.8884 4.22 26.5734 4.05 27.3434 4.05C28.1234 4.05 28.8134 4.22 29.4134 4.56C30.0234 4.9 30.4984 5.37 30.8384 5.97C31.1884 6.57 31.3634 7.265 31.3634 8.055C31.3634 8.835 31.1884 9.53 30.8384 10.14C30.4984 10.74 30.0234 11.215 29.4134 11.565C28.8034 11.905 28.1134 12.075 27.3434 12.075ZM27.3434 11.13C27.9134 11.13 28.4184 11.005 28.8584 10.755C29.2984 10.495 29.6434 10.135 29.8934 9.675C30.1534 9.205 30.2834 8.665 30.2834 8.055C30.2834 7.435 30.1534 6.895 29.8934 6.435C29.6434 5.975 29.2984 5.62 28.8584 5.37C28.4184 5.11 27.9184 4.98 27.3584 4.98C26.7984 4.98 26.2984 5.11 25.8584 5.37C25.4184 5.62 25.0684 5.975 24.8084 6.435C24.5484 6.895 24.4184 7.435 24.4184 8.055C24.4184 8.665 24.5484 9.205 24.8084 9.675C25.0684 10.135 25.4184 10.495 25.8584 10.755C26.2984 11.005 26.7934 11.13 27.3434 11.13Z" fill="#2B2626"/>
</svg>
